<?xml version="1.0" standalone="no"?>
<!DOCTYPE svg PUBLIC "-//W3C//DTD SVG 20010904//EN"
 "http://www.w3.org/TR/2001/REC-SVG-20010904/DTD/svg10.dtd">
<svg version="1.0" xmlns="http://www.w3.org/2000/svg"
 width="512.000000pt" height="512.000000pt" viewBox="0 0 512.000000 512.000000"
 preserveAspectRatio="xMidYMid meet">
<metadata>
Created by potrace 1.16, written by Peter Selinger 2001-2019
</metadata>
<g transform="translate(0.000000,512.000000) scale(0.100000,-0.100000)"
fill="currentColor" stroke="none">
<path d="M2408 4460 c-30 -8 -53 -49 -44 -83 3 -15 20 -42 36 -61 l30 -34 -52
-17 c-93 -30 -186 -85 -253 -151 -69 -67 -136 -163 -155 -219 -9 -26 -23 -39
-76 -65 -38 -19 -69 -41 -74 -53 -5 -15 -32 -31 -85 -52 -42 -16 -84 -38 -93
-49 -20 -21 -28 -166 -15 -256 l8 -55 100 -52 c75 -38 101 -57 105 -75 4 -15
17 -27 38 -33 24 -8 38 -24 59 -65 31 -61 76 -93 147 -105 40 -7 38 -7 -53
-26 -123 -26 -147 -39 -162 -89 -7 -22 -14 -40 -17 -40 -2 0 -18 12 -35 26
-26 22 -38 25 -77 21 -166 -17 -306 -154 -369 -361 -27 -88 -26 -101 6 -134
l26 -26 -39 -116 c-21 -63 -49 -127 -62 -141 -37 -42 -152 -332 -152 -384 0
-14 13 -40 30 -58 l30 -35 -22 -48 c-29 -67 -38 -226 -14 -272 9 -17 16 -44
16 -59 0 -15 12 -52 27 -81 32 -63 88 -107 148 -115 22 -3 47 -9 56 -12 20 -8
89 20 89 35 0 6 19 19 43 29 27 12 47 29 56 47 7 16 20 43 28 61 26 53 6 129
-73 274 l-42 79 34 0 c29 0 39 7 67 46 17 25 56 89 84 142 53 98 64 143 43
183 -8 14 -6 28 8 56 11 21 34 83 53 138 l34 100 10 -237 10 -237 53 -53 c47
-49 52 -58 52 -99 0 -31 7 -55 20 -72 15 -19 20 -40 20 -85 0 -75 -5 -89 -40
-107 -35 -18 -55 -61 -71 -154 -9 -51 -18 -76 -31 -85 -40 -24 -60 -74 -65
-160 l-6 -83 -33 -12 c-35 -13 -94 -73 -94 -95 0 -9 -19 -16 -57 -20 -32 -4
-80 -10 -108 -13 l-50 -7 55 -7 c30 -4 80 -7 111 -8 41 -1 59 -5 63 -16 5 -13
113 -15 891 -15 778 0 886 2 891 15 5 11 23 15 68 16 33 0 84 4 111 8 l50 7
-35 7 c-19 3 -69 9 -110 13 -75 6 -75 7 -101 48 -26 42 -78 76 -117 76 -15 0
-21 9 -26 46 -3 26 -6 62 -6 81 0 40 -30 103 -58 120 -16 9 -21 28 -27 85 -9
84 -17 109 -52 160 -25 37 -25 39 -18 173 l7 135 41 28 c23 15 52 43 64 61 22
33 23 42 23 254 l0 220 25 -27 c14 -15 25 -33 25 -41 0 -8 11 -38 23 -67 18
-41 21 -57 13 -70 -8 -13 -7 -26 3 -50 7 -18 37 -98 68 -177 46 -121 53 -149
44 -168 -28 -62 4 -131 74 -160 25 -10 45 -24 45 -32 0 -8 -10 -35 -22 -60
-54 -113 -25 -240 70 -303 30 -19 58 -48 67 -68 31 -65 75 -109 141 -141 58
-29 71 -31 131 -27 113 8 211 77 263 183 48 98 32 274 -29 329 -18 16 -21 14
-65 -41 -44 -54 -46 -61 -40 -98 12 -68 3 -177 -17 -202 -22 -26 -87 -53 -129
-53 -78 0 -125 45 -170 162 -25 67 -25 94 0 141 24 45 10 48 -32 6 l-31 -31
-25 25 c-24 25 -24 25 -8 75 10 28 23 56 31 62 40 33 130 -4 159 -65 17 -34
16 -36 -8 -68 -49 -65 -52 -143 -7 -206 22 -30 40 -37 90 -32 61 6 112 80 95
139 -4 15 -8 65 -9 112 -2 132 -45 204 -157 261 -39 20 -41 22 -23 35 10 8 22
14 27 14 4 0 8 19 8 43 -1 32 -3 38 -11 25 -7 -14 -19 -16 -57 -12 -29 4 -63
0 -88 -8 l-41 -15 -25 58 -26 58 54 21 c30 11 61 20 70 20 26 0 78 -27 109
-57 l30 -29 2 63 c2 53 -5 83 -46 196 -62 171 -75 199 -93 215 -9 7 -14 21
-11 32 3 12 -7 39 -25 67 -24 39 -62 116 -62 128 0 1 9 5 19 8 10 2 27 17 36
31 17 26 17 30 -8 107 -15 44 -39 105 -54 136 -35 71 -153 199 -190 206 -16 3
-56 14 -91 24 -68 19 -89 14 -107 -25 -13 -30 -19 -28 -34 13 -16 46 -40 60
-136 83 -71 17 -77 20 -50 26 86 21 136 65 155 136 10 35 14 40 41 40 24 0 33
6 43 32 11 25 31 40 97 72 l84 41 3 152 3 152 -28 20 c-16 12 -53 33 -83 48
-39 20 -56 35 -60 53 -4 16 -14 26 -29 28 -15 2 -26 14 -33 33 -6 16 -23 36
-38 44 -15 8 -42 40 -60 72 -73 130 -237 259 -390 308 -30 10 -57 19 -58 21
-2 1 8 20 22 41 30 44 33 82 9 112 -17 19 -30 21 -170 23 -84 2 -163 1 -175
-2z m320 -42 c18 -18 15 -32 -15 -80 l-27 -44 -108 1 c-105 1 -108 2 -139 30
-43 42 -52 61 -39 85 10 19 21 20 163 20 106 0 157 -4 165 -12z m30 -203 c78
-24 177 -78 220 -118 l24 -22 -24 -6 c-37 -11 -816 -10 -823 0 -7 12 83 80
150 114 51 25 135 52 190 61 60 9 187 -5 263 -29z m309 -221 c46 -52 73 -130
75 -217 l2 -72 5 78 6 77 37 -26 c33 -23 38 -33 44 -83 13 -101 -4 -397 -27
-481 -27 -97 -43 -123 -93 -152 l-41 -23 -507 0 c-498 0 -507 0 -535 21 -33
24 -73 90 -73 120 0 16 -9 22 -42 30 -33 7 -44 15 -49 34 -4 14 -7 120 -8 236
l-1 211 44 31 c24 18 46 32 49 32 2 0 6 -106 9 -235 l5 -235 74 -70 c44 -41
88 -73 109 -79 20 -6 200 -11 432 -11 316 0 405 3 431 13 33 14 127 110 127
130 0 6 -19 -7 -42 -29 -93 -86 -37 -78 -520 -78 -387 -1 -434 1 -452 15 -12
10 -46 40 -76 68 l-55 51 0 247 0 248 29 58 c16 31 46 74 65 95 l36 37 455 -2
455 -3 32 -36z m239 -301 c10 -82 0 -354 -15 -380 -25 -48 -34 -26 -27 69 3
50 6 155 6 234 0 121 2 142 14 138 9 -4 17 -27 22 -61z m-1477 -115 c0 -62 -2
-108 -4 -103 -8 23 -11 215 -3 215 4 0 8 -51 7 -112z m-41 -13 c0 -33 -4 -71
-8 -85 -5 -16 -8 19 -8 90 0 73 3 104 8 85 4 -16 8 -57 8 -90z m-48 -5 c0 -49
-4 -92 -10 -95 -6 -4 -10 30 -10 95 0 65 4 99 10 95 6 -3 10 -46 10 -95z m-50
16 c0 -35 -3 -78 -7 -97 -5 -28 -7 -30 -14 -14 -9 24 -11 121 -3 153 12 43 24
22 24 -42z m1697 -73 c-2 -27 -3 -5 -3 47 0 52 1 74 3 48 2 -27 2 -69 0 -95z
m40 -5 c-2 -29 -3 -8 -3 47 0 55 1 79 3 53 2 -26 2 -71 0 -100z m40 -5 c-2
-21 -4 -4 -4 37 0 41 2 58 4 38 2 -21 2 -55 0 -75z m-512 -453 c-4 -6 -138
-10 -371 -10 -236 0 -364 4 -364 10 0 6 130 10 371 10 244 0 368 -3 364 -10z
m-754 -97 c3 -18 12 -40 19 -48 11 -13 -6 -15 -144 -15 -151 0 -156 1 -156 21
0 26 40 43 150 62 113 21 123 19 131 -20z m869 17 c36 -6 79 -15 97 -21 30 -9
48 -32 39 -48 -3 -4 -64 -8 -137 -10 -113 -2 -131 0 -126 13 3 8 9 31 13 50 5
30 10 35 28 31 11 -2 50 -9 86 -15z m-231 -66 c2 -2 -114 -4 -258 -4 -161 0
-260 4 -256 9 5 9 504 3 514 -5z m-1061 -26 c15 -15 17 -424 2 -462 -5 -14
-17 -26 -27 -26 -10 0 -95 25 -189 56 -149 49 -171 59 -167 75 3 12 14 19 29
19 19 0 29 13 57 73 19 39 53 96 76 126 29 38 39 60 35 76 -4 17 2 24 33 38
91 38 131 45 151 25z m1687 -27 c42 -16 49 -23 47 -41 -2 -14 7 -34 26 -54 51
-54 124 -174 129 -214 l5 -38 -68 -29 c-38 -15 -109 -48 -157 -72 -49 -23 -95
-43 -104 -43 -13 0 -14 32 -11 253 1 138 6 257 11 264 8 13 38 6 122 -26z
m-236 -433 c0 -238 -3 -450 -7 -471 -6 -35 -12 -40 -64 -61 -31 -13 -80 -37
-110 -55 -149 -89 -230 -115 -404 -132 -83 -8 -141 -8 -218 0 -131 15 -182 29
-326 96 -63 30 -132 60 -152 69 l-38 15 0 238 c0 131 -3 349 -7 486 l-6 247
666 0 667 0 -1 -432z m-1686 349 c-4 -7 -28 -41 -53 -77 -26 -36 -50 -72 -53
-80 -3 -9 -6 -6 -6 9 -2 43 89 178 111 165 4 -3 5 -11 1 -17z m2058 -30 c12
-22 12 -22 -10 -3 -11 11 -21 23 -21 28 0 14 19 -1 31 -25z m-304 -39 c-2 -13
-4 -5 -4 17 -1 22 1 32 4 23 2 -10 2 -28 0 -40z m-1440 -20 c-2 -13 -4 -3 -4
22 0 25 2 35 4 23 2 -13 2 -33 0 -45z m-219 -338 c93 -38 132 -59 132 -71 0
-64 -90 -225 -120 -213 -8 3 -44 17 -80 31 -129 48 -200 85 -200 103 0 18 36
122 67 192 15 35 17 36 43 25 15 -7 86 -37 158 -67z m1967 54 c-5 -2 -41 -20
-80 -39 -39 -19 -59 -26 -45 -15 36 28 122 71 129 64 3 -4 2 -8 -4 -10z m25
-31 c0 -5 -40 -27 -88 -50 -72 -35 -82 -38 -57 -17 28 24 121 74 138 74 4 0 7
-3 7 -7z m20 -53 c0 -5 -6 -10 -13 -10 -8 0 -44 -16 -82 -36 -82 -44 -82 -23
1 23 59 33 94 42 94 23z m20 -35 c0 -4 -148 -75 -158 -75 -15 0 56 45 96 61
50 19 62 22 62 14z m24 -42 c5 -5 -134 -63 -153 -63 -14 0 46 35 88 51 53 21
55 21 65 12z m66 -90 c11 -26 60 -162 60 -170 0 -2 -27 -3 -60 -3 -42 0 -76
-7 -116 -25 -32 -14 -58 -24 -59 -23 -1 2 -17 28 -35 58 -34 58 -34 56 -4 -26
l18 -51 -35 -41 -34 -40 -34 95 c-31 87 -33 98 -20 121 25 44 203 131 270 132
29 0 38 -5 49 -27z m-2283 -107 c145 -61 180 -82 202 -125 16 -29 14 -41 -20
-99 l-30 -53 -41 35 c-59 51 -194 98 -285 100 -40 0 -73 4 -73 7 0 22 80 199
91 199 3 0 74 -29 156 -64z m234 27 c-12 -20 -14 -14 -5 12 4 9 9 14 11 11 3
-2 0 -13 -6 -23z m2104 -129 c12 -5 45 -62 45 -78 0 -1 -26 0 -57 2 -43 3 -73
-2 -115 -18 -32 -12 -60 -21 -62 -21 -3 0 -20 -13 -38 -29 -39 -36 -48 -37
-48 -7 0 26 43 90 53 80 4 -3 7 1 7 9 0 25 96 68 151 68 26 0 55 -3 64 -6z
m-2370 -95 c67 -25 130 -80 141 -123 11 -47 -10 -53 -56 -16 -85 67 -225 94
-298 56 -30 -15 -33 -15 -39 -1 -10 27 16 95 40 106 34 14 145 3 212 -22z
m1703 -46 c4 -28 -41 -62 -149 -112 -154 -72 -226 -86 -449 -85 -209 0 -251 6
-409 56 -100 32 -151 68 -151 107 0 28 13 27 89 -9 166 -79 318 -107 531 -97
162 7 255 32 400 107 63 32 120 58 125 56 6 -1 11 -12 13 -23z m526 -88 l16
-50 -27 -20 c-16 -10 -43 -34 -61 -52 -19 -18 -37 -33 -40 -33 -18 0 -42 37
-42 67 0 28 11 45 60 95 36 38 63 58 69 53 4 -6 16 -32 25 -60z m-2286 1 c24
-23 10 -28 -57 -20 -56 6 -60 8 -50 26 9 17 18 19 51 15 23 -3 48 -12 56 -21z
m-69 -100 c-10 -24 -22 -65 -25 -90 -6 -43 -9 -46 -52 -60 l-45 -16 5 82 c4
73 8 84 32 105 18 15 40 23 66 23 l39 0 -20 -44z m2511 29 c0 -11 -11 -15 -42
-14 l-43 1 30 13 c39 18 55 18 55 0z m-2409 -29 c19 -8 47 -28 63 -44 43 -46
27 -63 -60 -66 -38 -1 -78 -6 -88 -11 -18 -8 -19 -5 -12 34 8 53 32 101 50
101 7 0 29 -6 47 -14z m2279 -33 c0 -10 -14 -26 -30 -35 -37 -21 -38 -13 -3
24 31 33 33 33 33 11z m112 -33 c-4 -27 -8 -30 -38 -30 -36 0 -41 9 -24 41 7
12 21 19 39 19 25 0 27 -3 23 -30z m116 -33 c9 -11 8 -18 -7 -31 -18 -16 -22
-16 -49 -2 -41 21 -47 34 -27 56 16 17 20 18 44 5 15 -7 33 -20 39 -28z
m-1713 -40 c28 -9 69 -21 93 -27 39 -10 42 -13 42 -46 l0 -35 -92 6 c-159 10
-202 15 -210 28 -9 15 -10 73 -2 115 l6 31 57 -28 c31 -16 79 -35 106 -44z
m880 -54 c-7 -30 -49 -42 -187 -49 -111 -7 -122 -6 -134 11 -8 10 -14 31 -14
47 0 24 4 28 28 28 42 0 183 36 243 63 l54 24 7 -51 c4 -28 5 -61 3 -73z
m-382 38 c5 -47 3 -59 -14 -77 -33 -35 -38 -69 -62 -434 l-2 -35 -67 -3 c-110
-5 -108 -8 -108 176 -1 178 -9 232 -39 273 -23 31 -30 126 -10 146 6 6 64 10
154 10 l143 -1 5 -55z m987 -11 c-10 -7 -21 -3 -34 10 -19 19 -19 20 -1 40
l19 22 15 -32 c13 -27 13 -32 1 -40z m-2209 -24 c10 -26 26 -57 36 -68 15 -16
15 -21 3 -28 -8 -6 -18 -10 -21 -10 -3 0 -17 -16 -30 -35 l-25 -34 -31 28
c-73 66 -107 166 -65 190 9 6 39 10 66 8 48 -2 48 -2 67 -51z m83 37 c10 -26
-35 -46 -49 -22 -4 6 1 17 11 24 25 19 31 18 38 -2z m2423 -14 c7 -14 15 -44
19 -67 l7 -42 -36 0 c-30 0 -37 4 -46 31 -15 43 -14 60 5 87 19 27 35 24 51
-9z m-2707 -18 c0 -10 -15 -30 -34 -45 -29 -21 -35 -23 -40 -10 -13 33 -6 52
22 62 41 15 52 14 52 -7z m2326 -40 c-9 -16 -16 -52 -16 -78 -1 -39 -3 -45
-11 -29 -7 10 -8 35 -5 58 8 46 37 109 43 91 2 -6 -3 -25 -11 -42z m-2007 -48
c1 -33 -16 -28 -35 9 -15 30 -15 32 2 45 17 12 20 11 26 -9 3 -13 6 -33 7 -45z
m2066 45 c-9 -29 -21 -42 -28 -31 -7 12 11 53 23 53 7 0 9 -9 5 -22z m-2363
-50 c-15 -15 -26 -4 -18 18 5 13 9 15 18 6 9 -9 9 -15 0 -24z m2923 -44 c39
-125 -24 -267 -147 -328 -90 -45 -192 -34 -266 29 -25 21 -30 30 -21 41 9 11
17 8 47 -16 70 -54 148 -60 227 -15 47 27 72 52 77 80 2 11 13 24 25 30 44 19
57 115 24 176 -15 27 -17 39 -8 48 19 19 24 13 42 -45z m-585 10 c0 -15 -6
-24 -15 -24 -16 0 -19 17 -9 44 9 22 24 10 24 -20z m-1378 -7 l116 -2 6 -35
c3 -19 6 -46 6 -59 l0 -23 -197 6 c-109 4 -215 9 -236 12 -37 6 -38 7 -32 37
4 18 11 46 16 62 l9 31 98 -13 c53 -7 149 -14 214 -16z m-906 -3 c16 -24 16
-26 -4 -46 l-21 -21 -20 33 c-15 25 -17 37 -9 47 16 20 36 16 54 -13z m1788
10 c3 -9 6 -35 6 -59 l0 -43 -72 -6 c-40 -3 -142 -8 -226 -11 l-153 -6 3 53 3
53 111 7 c62 5 143 12 180 17 111 14 141 13 148 -5z m-1874 -33 c12 -29 8 -51
-10 -51 -8 0 -30 53 -30 71 0 21 29 6 40 -20z m300 -2 c0 -10 -10 -29 -22 -43
-18 -20 -28 -23 -45 -16 -28 11 -29 30 -3 62 23 30 70 28 70 -3z m2135 -29
c-9 -41 -25 -22 -25 30 0 31 1 33 16 18 12 -11 14 -25 9 -48z m475 -27 c0 -17
-4 -35 -10 -38 -6 -4 -10 14 -10 47 0 38 3 49 10 38 5 -8 10 -29 10 -47z
m-535 25 c10 -30 9 -51 -2 -55 -15 -5 -36 34 -29 53 7 17 25 18 31 2z m293
-12 c3 -12 -1 -17 -10 -14 -7 3 -15 13 -16 22 -3 12 1 17 10 14 7 -3 15 -13
16 -22z m-2528 -5 c0 -5 -9 -11 -20 -14 -22 -6 -26 3 -8 21 11 11 28 7 28 -7z
m2560 -30 c-18 -34 -90 -23 -90 13 0 5 6 2 13 -8 18 -24 59 -17 72 12 5 12 11
18 13 13 2 -6 -2 -19 -8 -30z m-2645 -11 c10 -11 14 -20 8 -20 -5 0 -18 9 -28
20 -10 11 -14 20 -8 20 5 0 18 -9 28 -20z m129 3 c10 -26 -9 -38 -40 -24 -21
9 -24 14 -14 26 17 20 46 19 54 -2z m2308 -30 c19 -17 24 -59 9 -81 -6 -11
-13 -7 -30 16 -21 30 -27 62 -14 75 9 10 15 9 35 -10z m-1444 -46 c48 -26 73
-72 70 -127 l-3 -45 -272 -3 -273 -2 0 69 c0 61 3 74 27 101 l26 31 196 -3
c166 -3 201 -6 229 -21z m835 1 c14 -10 35 -18 46 -18 29 0 41 -30 41 -100 l0
-60 -277 2 -278 3 1 56 c1 61 21 101 63 125 40 22 366 16 404 -8z m-768 -227
l60 -6 0 -40 0 -40 -285 -5 c-157 -3 -295 -3 -307 -1 -30 4 -31 53 -3 81 19
19 33 20 248 19 125 -1 254 -4 287 -8z m842 -13 c13 -14 15 -23 7 -45 l-9 -28
-287 -3 c-280 -2 -287 -2 -293 18 -7 23 3 61 19 73 6 4 131 6 278 5 238 -3
269 -5 285 -20z"/>
<path d="M2925 3963 c-21 -21 -14 -38 16 -38 17 0 25 6 27 21 4 27 -23 38 -43
17z"/>
<path d="M2144 3945 c-4 -9 -2 -21 4 -27 15 -15 44 -1 40 19 -4 23 -36 29 -44
8z"/>
<path d="M2250 3943 c0 -10 69 -13 311 -13 204 0 310 3 307 10 -5 16 -618 19
-618 3z"/>
<path d="M2185 3746 c-61 -27 -115 -112 -115 -184 0 -12 7 -39 15 -60 63 -149
260 -165 341 -26 52 89 15 218 -76 264 -45 23 -120 26 -165 6z m69 -68 c12
-20 2 -44 -27 -62 -39 -25 -78 44 -41 71 24 17 54 13 68 -9z"/>
<path d="M2805 3746 c-62 -28 -115 -110 -115 -176 0 -78 65 -162 143 -185 94
-28 174 10 222 104 36 71 1 183 -73 235 -49 35 -129 45 -177 22z m65 -67 c9
-16 8 -26 -5 -45 -19 -29 -46 -31 -70 -4 -15 17 -16 24 -7 45 15 32 66 35 82
4z"/>
<path d="M3077 3633 c10 -35 13 -75 10 -142 -6 -100 6 -112 23 -23 11 58 0
133 -25 182 -22 43 -25 37 -8 -17z"/>
<path d="M2418 3133 c79 -2 205 -2 280 0 75 1 11 3 -143 3 -154 0 -216 -2
-137 -3z"/>
<path d="M3510 2536 c0 -29 28 -42 48 -22 20 20 8 46 -23 46 -20 0 -25 -5 -25
-24z"/>
<path d="M2101 2753 c-40 -20 -67 -61 -76 -115 -9 -50 4 -220 16 -212 5 3 9
55 9 116 0 121 10 152 60 182 25 14 78 16 460 16 426 0 433 0 471 -22 60 -34
79 -82 79 -206 0 -102 12 -135 24 -64 10 62 6 165 -8 205 -18 50 -42 76 -91
98 -37 17 -74 19 -475 19 -386 0 -439 -2 -469 -17z"/>
<path d="M2392 2567 c-26 -31 9 -38 189 -35 166 3 174 4 174 23 0 19 -8 20
-176 23 -143 3 -178 1 -187 -11z"/>
<path d="M2285 2476 c-17 -7 -43 -28 -59 -46 l-27 -33 3 -183 3 -184 28 -27
27 -28 315 -3 314 -3 33 30 33 29 3 180 c5 285 17 276 -368 279 -207 1 -283
-2 -305 -11z m172 -51 c8 -22 -4 -30 -49 -34 -5 -1 -8 -8 -8 -17 0 -8 -12 -36
-27 -62 -25 -41 -28 -57 -27 -124 2 -68 0 -77 -18 -81 -28 -8 -21 -51 10 -55
13 -2 28 1 35 6 8 7 23 1 47 -19 l34 -29 -80 0 c-118 0 -123 7 -126 163 -4
215 -5 207 30 238 29 26 39 29 102 29 54 0 72 -4 77 -15z m83 5 c-8 -5 -22
-10 -30 -10 -13 0 -13 1 0 10 8 5 22 10 30 10 13 0 13 -1 0 -10z m295 0 c70
-16 75 -30 75 -215 0 -196 -1 -197 -111 -203 -41 -3 -69 0 -69 6 0 19 34 37
69 37 30 0 37 4 39 23 3 16 -2 25 -15 28 -16 5 -18 14 -15 78 3 49 -1 83 -11
109 -16 36 -15 37 8 43 30 7 38 29 19 49 -20 19 -33 19 -55 -1 -16 -14 -21
-13 -68 10 -28 14 -57 26 -65 26 -8 0 -18 5 -21 10 -8 13 165 13 220 0z m-184
-67 c5 -5 -25 -8 -65 -8 -64 0 -77 -3 -109 -28 -20 -15 -44 -41 -52 -57 -17
-33 -20 -96 -5 -137 9 -26 9 -27 -5 -9 -23 30 -23 112 0 156 34 64 106 103
179 95 27 -2 53 -8 57 -12z m-19 -60 c61 -22 84 -63 68 -122 -11 -42 -55 -87
-95 -97 -33 -8 -87 12 -116 42 -34 37 -34 112 1 149 44 48 72 53 142 28z m117
-38 c0 -5 -6 1 -14 15 -8 14 -14 30 -14 35 0 6 6 -1 14 -15 8 -14 14 -29 14
-35z m8 -92 c-2 -16 -4 -3 -4 27 0 30 2 43 4 28 2 -16 2 -40 0 -55z m-110
-159 c-3 -3 -12 -4 -19 -1 -8 3 -5 6 6 6 11 1 17 -2 13 -5z"/>
<path d="M2310 2386 c-27 -33 18 -72 48 -42 13 13 14 20 6 34 -15 23 -38 26
-54 8z"/>
<path d="M2528 2283 c-95 -59 -35 -200 75 -179 86 16 111 138 37 177 -43 23
-77 24 -112 2z m90 -29 c24 -17 30 -61 12 -95 -13 -24 -72 -26 -94 -3 -24 24
-20 80 6 98 12 9 29 16 38 16 9 0 26 -7 38 -16z"/>
<path d="M1994 2310 c13 -30 38 -117 55 -193 33 -150 45 -178 88 -219 71 -68
188 -92 453 -92 242 -1 335 20 413 93 43 39 62 84 91 219 15 68 36 149 47 179
24 70 24 72 -1 41 -29 -37 -54 -110 -85 -242 -30 -130 -54 -170 -124 -206
-113 -57 -508 -66 -680 -14 -56 16 -105 53 -126 93 -7 15 -25 77 -38 138 -29
128 -58 201 -93 234 l-25 23 25 -54z"/>
<path d="M1456 2284 c-4 -9 -5 -18 -3 -20 8 -9 202 -84 214 -84 18 0 12 21 -8
31 -8 4 -47 20 -87 35 -40 15 -77 33 -83 41 -15 17 -26 16 -33 -3z"/>
<path d="M2090 1430 c0 -6 32 -10 76 -10 47 0 73 4 69 10 -3 6 -37 10 -76 10
-39 0 -69 -4 -69 -10z"/>
<path d="M2870 1430 c0 -6 30 -10 69 -10 39 0 73 5 76 10 4 6 -22 10 -69 10
-44 0 -76 -4 -76 -10z"/>
<path d="M1512 1234 c2 -11 11 -20 22 -22 13 -3 17 1 14 14 -2 11 -11 20 -22
22 -13 3 -17 -1 -14 -14z"/>
<path d="M1760 4085 c-19 -23 -8 -50 24 -53 42 -5 59 24 30 52 -19 20 -38 20
-54 1z"/>
<path d="M3407 4082 c-25 -27 -22 -78 5 -96 48 -34 98 -7 98 52 0 54 -68 83
-103 44z m53 -32 c0 -11 -6 -20 -14 -20 -18 0 -29 16 -21 30 11 18 35 11 35
-10z"/>
<path d="M3463 3893 c-18 -7 -16 -50 2 -57 36 -14 61 24 33 52 -13 13 -16 13
-35 5z"/>
<path d="M877 3483 l-42 -88 1 -175 c1 -96 4 -216 9 -266 l7 -91 -45 -32 c-79
-54 -77 -48 -77 -296 l1 -220 44 -59 45 -59 0 -171 c0 -94 -4 -188 -9 -208 -7
-31 -5 -42 14 -69 18 -23 24 -44 24 -84 0 -40 6 -66 26 -99 36 -62 48 -63 84
-7 26 40 31 58 31 108 0 52 3 62 29 87 l29 28 -5 204 c-5 178 -4 206 10 228
11 16 17 46 17 85 0 49 -4 65 -25 90 -25 29 -25 32 -11 60 9 16 29 40 45 53
28 21 30 28 31 93 2 103 2 101 -30 138 l-30 35 0 288 0 289 -41 95 c-41 94
-64 130 -81 130 -5 0 -28 -39 -51 -87z m83 -35 c8 -27 7 -28 -26 -28 -19 0
-34 1 -34 3 0 2 7 25 17 52 18 53 19 52 43 -27z m4 -74 c13 -12 16 -41 16
-150 0 -121 -2 -136 -20 -154 -11 -11 -33 -20 -50 -20 -23 0 -30 4 -30 20 0
11 7 20 15 20 8 0 24 9 35 20 24 24 28 90 5 90 -10 0 -15 -11 -15 -35 0 -24
-6 -37 -19 -45 -30 -16 -31 -14 -31 49 0 57 1 60 27 63 39 4 42 28 4 28 -31 0
-31 0 -31 55 0 48 3 57 23 65 33 13 54 12 71 -6z m43 -46 c-3 -8 -6 -5 -6 6
-1 11 2 17 5 13 3 -3 4 -12 1 -19z m-26 -288 c-16 -14 -37 -20 -65 -19 l-41 2
47 6 c27 4 53 12 60 19 7 7 14 12 18 12 3 -1 -6 -10 -19 -20z m19 -50 c0 -18
-7 -20 -55 -20 -58 0 -79 19 -22 21 17 0 41 4 52 9 11 5 21 9 23 9 1 1 2 -8 2
-19z m-6 -76 c9 -23 7 -87 -3 -103 -7 -10 -21 -12 -55 -7 l-46 7 0 60 0 59 49
0 c35 0 51 -4 55 -16z m-81 -190 c26 -16 50 -37 53 -47 9 -30 43 -41 65 -21
25 22 13 36 -57 68 -51 24 -74 42 -36 30 58 -19 80 -30 105 -52 23 -22 27 -33
25 -76 l-2 -51 -3 48 -4 49 -25 -27 -25 -27 -34 31 c-74 65 -115 72 -162 28
l-23 -20 0 53 0 53 38 -5 c20 -3 58 -18 85 -34z m97 -44 c0 -5 -4 -10 -10 -10
-5 0 -10 5 -10 10 0 6 5 10 10 10 6 0 10 -4 10 -10z m-70 -40 c54 -45 73 -83
67 -131 -4 -32 -4 -31 -5 7 -2 35 -8 48 -39 74 -30 27 -42 31 -70 27 -42 -7
-62 -23 -79 -62 -13 -29 -13 -29 -14 28 0 54 2 58 33 77 44 27 52 26 107 -20z
m19 -76 c28 -35 28 -97 1 -124 -50 -50 -130 -7 -130 68 0 75 85 112 129 56z
m-106 -158 c15 -11 42 -21 60 -22 17 -1 40 -2 50 -3 10 -1 29 -12 42 -26 29
-28 33 -79 10 -109 -12 -16 -15 -58 -15 -205 l0 -186 -33 -22 c-35 -25 -63
-29 -87 -13 -12 7 -12 12 -2 22 9 9 12 64 12 204 0 189 0 192 -26 229 -18 27
-22 41 -15 48 6 6 11 22 11 35 0 22 -3 24 -30 19 l-30 -6 1 62 c0 61 0 61 12
28 7 -19 24 -43 40 -55z m-33 -121 c13 -14 21 -25 18 -25 -2 0 -15 11 -28 25
-13 14 -21 25 -18 25 2 0 15 -11 28 -25z m38 -60 c-3 -3 -9 2 -12 12 -6 14 -5
15 5 6 7 -7 10 -15 7 -18z m9 -247 c-3 -8 -6 -5 -6 6 -1 11 2 17 5 13 3 -3 4
-12 1 -19z m0 -90 c-2 -13 -4 -5 -4 17 -1 22 1 32 4 23 2 -10 2 -28 0 -40z
m22 -117 c-6 -2 -18 4 -27 13 -15 15 -15 15 10 4 15 -7 23 -15 17 -17z m91 14
c-7 -8 -17 -15 -23 -15 -6 0 -2 7 9 15 25 19 30 19 14 0z m-43 -21 c-3 -3 -12
-4 -19 -1 -8 3 -5 6 6 6 11 1 17 -2 13 -5z m13 -98 c0 -22 -5 -48 -10 -56 -6
-10 -10 -11 -10 -2 0 6 -7 12 -15 12 -8 0 -17 14 -21 35 -9 48 -1 64 30 58 23
-5 26 -10 26 -47z"/>
<path d="M880 3320 c0 -5 14 -10 30 -10 17 0 30 5 30 10 0 6 -13 10 -30 10
-16 0 -30 -4 -30 -10z"/>
<path d="M875 2568 c-28 -16 -35 -28 -35 -63 0 -16 4 -35 8 -41 10 -15 47 -34
66 -34 27 0 56 38 56 73 0 38 -7 50 -37 66 -26 14 -33 13 -58 -1z m63 -35 c11
-21 -2 -61 -22 -69 -21 -8 -56 14 -56 36 0 42 60 67 78 33z"/>
<path d="M881 2526 c-15 -18 -3 -46 20 -46 25 0 35 26 19 45 -15 19 -24 19
-39 1z"/>
<path d="M942 2356 c6 -14 15 -23 19 -20 15 9 10 23 -11 34 -18 10 -19 9 -8
-14z"/>
<path d="M885 2360 c-7 -12 12 -40 27 -40 16 0 21 32 7 41 -18 12 -26 11 -34
-1z"/>
<path d="M930 2060 c0 -147 4 -230 10 -230 6 0 10 83 10 230 0 147 -4 230 -10
230 -6 0 -10 -83 -10 -230z"/>
<path d="M1270 3356 c-18 -22 -5 -48 22 -44 17 2 23 10 23 28 0 29 -26 38 -45
16z"/>
<path d="M3737 3194 c-18 -18 16 -24 139 -24 112 0 134 2 134 15 0 13 -21 15
-133 15 -74 0 -137 -3 -140 -6z"/>
<path d="M3526 3161 c-38 -42 7 -97 53 -65 26 19 27 60 2 74 -27 14 -35 13
-55 -9z"/>
<path d="M3770 3115 c0 -13 22 -15 135 -15 113 0 135 2 135 15 0 13 -22 15
-135 15 -113 0 -135 -2 -135 -15z"/>
<path d="M1120 2986 c0 -14 4 -27 9 -30 18 -11 41 6 41 30 0 19 -5 24 -25 24
-20 0 -25 -5 -25 -24z"/>
<path d="M4155 2650 c-8 -14 3 -30 21 -30 8 0 14 9 14 20 0 21 -24 28 -35 10z"/>
<path d="M4055 2502 c-74 -35 -115 -105 -115 -198 0 -22 3 -44 7 -47 3 -4 21
3 40 14 19 12 36 19 39 17 2 -3 -2 -106 -11 -229 -8 -123 -16 -267 -17 -321
-3 -90 -1 -98 21 -122 23 -24 31 -26 111 -26 101 0 140 19 140 69 0 15 7 36
15 47 16 21 20 51 6 56 -5 2 -2 134 6 301 l15 297 -26 55 c-45 92 -143 128
-231 87z m125 -38 c25 -10 48 -29 62 -53 22 -34 23 -44 20 -198 -3 -203 -17
-431 -26 -440 -20 -20 -26 32 -21 157 6 133 6 135 -13 113 -28 -32 -41 -257
-16 -284 9 -10 24 -21 33 -24 24 -7 15 -71 -12 -90 -29 -20 -130 -20 -147 0
-13 15 -11 94 7 392 l6 102 29 6 c15 4 43 21 62 38 30 29 34 39 40 105 9 104
-13 142 -83 142 -37 0 -67 -24 -81 -65 -6 -19 -15 -35 -20 -35 -5 0 -16 -3
-26 -7 -15 -5 -16 -2 -10 33 10 55 31 83 79 105 52 23 66 23 117 3z m-28 -158
c-2 -56 -7 -72 -25 -87 -12 -10 -30 -18 -40 -19 -17 0 -18 6 -12 78 8 87 17
104 54 100 25 -3 26 -4 23 -72z"/>
<path d="M4160 2106 l-45 -33 -11 -164 c-6 -90 -7 -174 -3 -187 11 -28 54 -45
87 -34 40 13 39 32 0 32 -19 0 -39 5 -46 12 -13 13 -15 89 -5 228 l6 93 44 30
c41 30 57 58 31 56 -7 0 -33 -15 -58 -33z"/>
<path d="M3845 760 c-4 -6 22 -10 70 -10 48 0 74 4 70 10 -3 6 -35 10 -70 10
-35 0 -67 -4 -70 -10z"/>
</g>
</svg>